<?xml version="1.0" standalone="no"?>
<!DOCTYPE svg PUBLIC "-//W3C//DTD SVG 20010904//EN"
 "http://www.w3.org/TR/2001/REC-SVG-20010904/DTD/svg10.dtd">
<svg version="1.0" xmlns="http://www.w3.org/2000/svg"
 width="512.000000pt" height="512.000000pt" viewBox="0 0 512.000000 512.000000"
 preserveAspectRatio="xMidYMid meet">

<g transform="translate(0.000000,512.000000) scale(0.100000,-0.100000)"
fill="#000000" stroke="none">
<path d="M1600 4821 c0 -99 -4 -141 -12 -148 -12 -9 -97 -26 -458 -94 -91 -16
-219 -41 -285 -54 -66 -13 -169 -33 -230 -44 -60 -12 -182 -35 -270 -52 -88
-16 -164 -34 -169 -39 -9 -9 10 -116 179 -965 41 -203 106 -534 145 -735 39
-201 109 -554 155 -785 120 -609 228 -1151 288 -1460 52 -261 54 -270 78 -273
13 -1 373 67 799 152 l775 155 -497 0 -498 1 0 1600 0 1600 1680 0 1680 0 0
235 c0 191 -3 240 -15 258 -8 13 -190 195 -404 405 l-390 382 -1275 0 -1276 0
0 -139z m820 -122 c60 -27 88 -54 116 -114 30 -64 31 -143 3 -205 -27 -60 -54
-88 -114 -116 -43 -20 -65 -24 -157 -24 l-108 0 0 -160 0 -160 -80 0 -80 0 0
377 c0 373 0 377 22 400 21 22 27 23 187 23 145 0 172 -3 211 -21z m640 0 c60
-27 88 -54 116 -114 23 -48 24 -60 24 -265 0 -205 -1 -217 -24 -265 -28 -60
-56 -87 -116 -114 -39 -18 -66 -21 -209 -21 -155 0 -166 1 -188 22 l-23 21 0
356 c0 350 0 355 22 378 21 22 27 23 187 23 145 0 172 -3 211 -21z m700 -59
l0 -80 -160 0 -160 0 0 -80 0 -80 160 0 160 0 0 -80 0 -80 -160 0 -160 0 0
-160 0 -160 -80 0 -80 0 0 377 c0 373 0 377 22 400 21 23 25 23 240 23 l218 0
0 -80z"/>
<path d="M2160 4480 l0 -82 95 4 c108 3 138 21 138 78 0 57 -30 75 -138 78
l-95 4 0 -82z"/>
<path d="M2800 4320 l0 -242 95 4 c82 3 97 6 117 26 22 22 23 28 23 212 0 184
-1 190 -23 212 -20 20 -35 23 -117 26 l-95 4 0 -242z"/>
<path d="M2175 2466 c-37 -16 -70 -52 -84 -89 -8 -19 -11 -247 -11 -696 l0
-667 23 -44 c16 -33 34 -51 67 -68 l44 -22 1066 0 1066 0 44 22 c33 17 51 35
68 68 22 44 22 47 22 510 0 463 0 466 -22 510 -17 33 -35 51 -68 68 -44 22
-47 22 -495 22 l-450 0 -200 200 -200 200 -420 0 c-328 -1 -427 -4 -450 -14z"/>
</g>
</svg>
